<?xml version="1.0" encoding="iso-8859-1"?>
<svg version="1.1" id="Capa_1" xmlns="http://www.w3.org/2000/svg" xmlns:xlink="http://www.w3.org/1999/xlink" viewBox="0 0 487.65 487.65" width="12px" height="12px">
<g>
	<path d="M243.824,0C109.163,0,0,109.163,0,243.833C0,378.487,109.163,487.65,243.824,487.65 c134.662,0,243.826-109.163,243.826-243.817C487.65,109.163,378.486,0,243.824,0z M243.762,103.634	c20.416,0,36.977,16.555,36.977,36.977c0,20.425-16.561,36.978-36.977,36.978c-20.424,0-36.986-16.553-36.986-36.978 C206.775,120.189,223.338,103.634,243.762,103.634z M307.281,381.228c0,3.695-2.995,6.691-6.684,6.691h-21.509h-70.663h-21.492	c-3.689,0-6.683-2.996-6.683-6.691v-13.719c0-3.694,2.993-6.689,6.683-6.689h21.492V230.706h-22.153 c-3.689,0-6.685-2.996-6.685-6.692V210.28c0-3.695,2.996-6.69,6.685-6.69h22.153h63.981h0.216c3.686,0,6.683,2.995,6.683,6.69 v150.539h21.293c3.688,0,6.684,2.995,6.684,6.689V381.228z" fill="#999"/>
</g>
</svg>